<svg width="22" height="23" viewBox="0 0 22 23" fill="none" xmlns="http://www.w3.org/2000/svg">
<g id="Frame 60809">
<g id="Group 20461">
<path id="BreES (Stroke)" fill-rule="evenodd" clip-rule="evenodd" d="M7.06967 6.45214H11.0257C12.7881 6.45214 14.1317 6.68096 15.0567 7.13858C15.9941 7.59621 16.4628 8.36304 16.4628 9.43908C16.4628 10.3049 16.1941 10.9851 15.6566 11.4798C15.301 11.8072 14.8852 12.0723 14.4092 12.2751C14.1658 12.3788 13.9067 12.4662 13.6318 12.5373C13.9162 12.5918 14.1795 12.6638 14.4218 12.7532C14.8398 12.9075 15.1952 13.1138 15.4879 13.3722C15.9504 13.7803 16.1816 14.4111 16.1816 15.2645C16.1816 16.5014 15.6754 17.497 14.663 18.2515C13.663 18.9936 12.0256 19.3646 9.75075 19.3646H5.25103L7.06967 6.45214ZM14.6385 12.5021C14.9404 12.6487 15.5487 12.8268 15.7886 13.0386C16.3803 13.5608 16.6334 14.3354 16.6334 15.2645C16.6334 16.6441 16.0586 17.7711 14.9347 18.6086L14.934 18.6091C13.814 19.4403 12.0532 19.8117 9.75075 19.8117H4.73192L6.67649 6.0051H11.0257C12.8147 6.0051 14.2405 6.23529 15.2577 6.73821C15.791 6.99877 16.2126 7.35878 16.4979 7.82556C16.7827 8.29162 16.9146 8.83595 16.9146 9.43908C16.9146 10.4032 16.6112 11.2117 15.9644 11.8072C15.669 12.0791 15.0024 12.3103 14.6385 12.5021Z" fill="#1458DD"/>
<path id="BreES (Stroke)_2" fill-rule="evenodd" clip-rule="evenodd" d="M5.3045 7.31505C5.78351 7.31505 6.19728 7.31505 6.58625 7.31505C6.70792 7.31505 6.82556 6.45214 6.93937 6.45214C7.60898 6.45214 8.14639 6.45214 8.59613 6.45214C8.67947 6.45214 8.7598 7.31505 8.8374 7.31505C9.80911 7.31505 10.3532 7.31505 11.0261 7.31505C12.7885 7.31505 10.6892 7.54387 11.6142 8.00149C12.5516 8.45912 11.2547 9.22595 11.2547 10.302C11.2547 11.1678 10.986 11.848 10.4485 12.3428C10.0929 12.6701 9.67711 12.9352 9.2011 13.138C8.95769 13.2417 8.69855 13.3291 8.42366 13.4002C8.70806 13.4547 8.97142 13.5267 9.21374 13.6161C9.6317 13.7704 9.45737 13.9767 9.75012 14.2351C10.2126 14.6433 10.4438 15.274 10.4438 16.1275C10.4438 17.3643 14.8813 17.9285 13.8689 18.6829C12.8689 19.425 10.2604 20.2275 7.98559 20.2275H3.48586L5.3045 7.31505ZM9.43035 13.365C9.7323 13.5116 9.81091 13.6897 10.0508 13.9015C10.6425 14.4237 10.8956 15.1983 10.8956 16.1275C10.8956 17.507 15.2646 18.2025 14.1407 19.04L14.1399 19.0406C13.0199 19.8718 10.2881 20.6746 7.98559 20.6746H2.96675L4.91132 6.86801H6.67453L6.98351 6.0051H8.66084L8.92568 6.86801H11.0261C12.8151 6.86801 10.798 7.0982 11.8152 7.60112C12.3485 7.86168 11.0044 8.22169 11.2898 8.68848C11.5746 9.15453 11.7065 9.69886 11.7065 10.302C11.7065 11.2661 11.4031 12.0746 10.7562 12.6701C10.4609 12.942 9.79424 13.1732 9.43035 13.365Z" fill="#1458DD"/>
<path id="BreES" d="M16.0486 11.2169C16.9318 11.384 17.637 11.6973 18.164 12.1568C18.6911 12.6163 18.9547 13.3264 18.9547 14.2872C18.9547 15.6797 18.3777 16.8006 17.2238 17.65C16.0842 18.4854 14.218 18.9032 11.6254 18.9032H6.49698L8.5697 4.36603H13.0784C15.087 4.36603 16.6184 4.62363 17.6726 5.13884C18.741 5.65404 19.2752 6.51736 19.2752 7.72879C19.2752 8.7035 18.9689 9.46935 18.3564 10.0263C17.7438 10.5833 16.9745 10.9802 16.0486 11.2169ZM12.8006 9.98455C13.6126 9.98455 14.1468 9.82442 14.4032 9.50416C14.6739 9.16997 14.8092 8.7592 14.8092 8.27184C14.8092 7.93766 14.6739 7.69398 14.4032 7.54081C14.1468 7.38764 13.7123 7.31105 13.0998 7.31105H12.4374L12.0527 9.98455H12.8006ZM12.0527 15.8746C13.0072 15.8746 13.6553 15.7075 13.9972 15.3733C14.3534 15.0252 14.5314 14.5379 14.5314 13.9113C14.5314 13.1036 13.926 12.6998 12.7151 12.6998H11.6681L11.2194 15.8746H12.0527Z" fill="#1458DD"/>
</g>
</g>
</svg>
